<svg width="300" height="300" viewBox="0 0 300 300" fill="none" xmlns="http://www.w3.org/2000/svg">
<g filter="url(#filter0_d)">
<path d="M161.247 54.6268C159.174 51.4752 154.038 50.008 154.038 50.008C154.038 50.008 153.875 46.2641 155.513 44.0309C157.152 41.7976 157.677 41.3123 159.338 39.8468C160.075 39.1958 161.304 38.271 161.304 38.271L159.502 34.576C159.502 34.576 156.114 36.0432 154.038 38.6514C152.847 40.1488 151.088 42.5637 151.088 42.5637C151.088 42.5637 149.262 40.3645 147.865 39.1948C143.292 35.3654 138.414 34.25 133.388 34.25C128.361 34.25 125.521 36.6952 125.521 36.6952C125.521 36.6952 128.416 42.5637 133.879 45.2806C139.342 47.9975 141.856 47.7258 147.592 47.0738C148.423 46.9793 149.722 46.8564 149.722 46.8564L149.176 50.008C149.176 50.008 144.385 50.8231 142.074 54.6268C139.069 59.5716 140.49 60.8213 137.867 66.7985C135.245 72.7757 130.016 75.7054 127.16 79.405C124.81 82.4479 122.637 87.7918 122.625 93.0982C122.613 98.4045 123.856 103.662 127.484 107.552C131.112 111.442 134.283 113.112 139.558 113.91C141.962 114.273 143.546 114.181 145.786 113.91C148.025 113.638 149.665 112.497 151.741 112.497C153.817 112.497 155.29 113.609 157.641 113.91C160.413 114.264 161.574 114.453 164.798 113.91C168.021 113.366 172.337 111.736 176.052 107.552C178.565 104.509 180.422 100.216 180.75 95.2173C180.75 88.6968 179.111 84.8931 179.111 84.8931C177.691 81.1981 176.521 79.365 173.757 76.3077C172.266 74.6579 169.412 72.5788 168.13 71.0912C166.819 69.5698 165.683 68.972 163.596 62.3971C162.612 59.2999 162.991 57.2785 161.247 54.6268Z" fill="url(#paint0_linear)"/>
</g>
<g filter="url(#filter1_i)">
<path d="M162.725 109.563C158.299 109.834 156.06 109.563 152.399 107.552C152.399 107.552 151.933 107.343 151.58 107.335C151.208 107.326 151.034 107.424 150.706 107.552C146.554 109.182 145.298 110.16 140.217 109.563L140.167 109.557C138.469 109.358 132.753 108.687 129.345 102.716C127.597 99.51 126.832 95.1087 126.996 93.1525C127.434 87.9361 128.493 84.5964 131.804 80.4374C133.322 78.5311 134.319 77.8082 136.174 76.0903C137.759 74.6232 138.969 73.1561 140.217 71.5803C143.445 67.5049 144.029 62.1255 144.478 59.7889C144.928 57.4524 147.537 54.0291 151.853 54.2464C156.169 54.4638 158.081 57.7241 158.737 59.789C159.392 61.8538 158.573 65.4944 162.998 71.5803C164.704 73.9263 166.005 75.114 167.041 76.036C168.692 77.5059 169.783 78.1334 171.63 80.4374C174.634 84.1867 176.219 89.7835 176.219 93.1525C176.219 96.5215 175.891 99.2927 173.76 102.716C171.63 106.139 167.04 109.298 162.725 109.563Z" fill="#8DC17D"/>
</g>
<path d="M139.452 39.4664C136.382 38.4339 133.006 38.8143 133.006 38.8143C133.006 38.8143 134.426 41.0422 138.36 42.1833C142.785 43.467 145.189 43.0527 145.189 43.0527C145.189 43.0527 143.495 40.8259 139.452 39.4664Z" fill="url(#paint1_linear)"/>
<g filter="url(#filter2_d)">
<path d="M71.1136 126.939C71.1136 125.562 70.4843 124.264 69.2256 123.045C67.4163 121.314 64.9186 120.449 61.7326 120.449C58.9399 120.449 55.8523 121.059 52.4696 122.278C50.6996 122.907 49.1656 123.773 47.8676 124.874C45.8616 126.605 44.8586 128.335 44.8586 130.066C44.8586 132.387 46.3336 134.471 49.2836 136.32C50.3849 136.989 52.5876 138.09 55.8916 139.624C59.2349 141.119 61.6736 142.338 63.2076 143.282C65.5283 144.698 67.1213 146.212 67.9866 147.825C68.8913 149.438 69.3436 150.932 69.3436 152.309C69.3436 154.276 68.6946 156.282 67.3966 158.327C65.1153 161.985 61.7719 165.132 57.3666 167.767C52.2926 170.835 46.1763 172.369 39.0176 172.369C32.1343 172.369 26.6669 170.619 22.6156 167.118C19.4689 164.443 17.8956 161.002 17.8956 156.793C17.8956 154.118 18.8593 151.168 20.7866 147.943C22.7533 144.718 25.1526 142.436 27.9846 141.099C28.5746 140.863 29.0073 140.784 29.2826 140.863C29.5973 140.942 29.3613 141.315 28.5746 141.984C26.8833 143.321 25.5263 144.796 24.5036 146.409C22.3009 149.87 21.1996 153.627 21.1996 157.678C21.1996 160.353 21.9469 162.693 23.4416 164.699C26.1163 168.278 30.7576 170.304 37.3656 170.776C38.1129 170.855 39.2143 170.894 40.6696 170.894C42.1643 170.894 44.1703 170.619 46.6876 170.068C49.2443 169.557 51.7026 168.691 54.0626 167.472C59.1366 164.797 62.4209 161.336 63.9156 157.088C64.3876 155.829 64.6236 154.61 64.6236 153.43C64.6236 150.755 63.4239 148.395 61.0246 146.35C59.7266 145.327 57.0716 143.97 53.0596 142.279C49.0869 140.548 46.4123 139.231 45.0356 138.326C42.0069 136.281 40.4926 133.862 40.4926 131.069C40.4926 128.63 41.8496 126.251 44.5636 123.93C48.4576 120.626 53.9643 118.974 61.0836 118.974C64.4269 118.974 67.1409 119.485 69.2256 120.508C71.3496 121.491 72.6476 122.986 73.1196 124.992C73.1983 125.385 73.2376 125.779 73.2376 126.172C73.2376 127.706 72.5296 129.083 71.1136 130.302C70.1303 131.089 68.8126 131.718 67.1606 132.19C66.4526 132.387 66.0593 132.308 65.9806 131.954C65.9019 131.443 66.3936 131.128 67.4556 131.01C69.3436 130.774 70.5039 129.83 70.9366 128.178C71.0546 127.745 71.1136 127.332 71.1136 126.939ZM100.812 146.409L100.517 147.412C98.7866 153.155 97.2133 157.363 95.7973 160.038C93.2406 164.758 90.4479 167.118 87.4193 167.118C86.0033 167.118 85.0396 166.764 84.5283 166.056C84.0169 165.309 83.7219 164.64 83.6433 164.05C83.6039 163.46 83.5843 162.949 83.5843 162.516C83.5843 161.454 83.7613 160.294 84.1153 159.035C81.2046 164.345 78.5889 167 76.2683 167C75.4029 167 74.6163 166.764 73.9083 166.292C73.2003 165.781 72.7676 165.112 72.6103 164.286C72.4923 164.089 72.4333 163.853 72.4333 163.578C72.4333 161.887 73.1609 159.841 74.6163 157.442C73.9869 157.442 73.8099 157.127 74.0853 156.498L75.1473 154.433C77.0746 150.657 78.1759 148.494 78.4513 147.943C78.8446 147.117 79.6116 146.704 80.7523 146.704H84.3513C82.9353 147.727 81.4996 149.713 80.0443 152.663C78.6283 155.574 77.5269 157.855 76.7403 159.507C75.9929 161.159 75.6193 162.437 75.6193 163.342C75.6193 164.207 75.7569 164.837 76.0323 165.23C76.3469 165.584 76.7403 165.761 77.2123 165.761C77.6843 165.761 78.2546 165.446 78.9233 164.817C79.5919 164.148 80.2016 163.44 80.7523 162.693C81.3029 161.946 81.8536 161.1 82.4043 160.156C82.9943 159.212 83.5253 158.327 83.9973 157.501C84.4693 156.636 84.9806 155.652 85.5313 154.551C86.0819 153.41 86.5146 152.525 86.8293 151.896C87.9699 149.615 88.5993 148.297 88.7173 147.943C89.0713 147.117 89.8186 146.704 90.9593 146.704H94.5583C94.4796 146.783 94.2633 146.94 93.9093 147.176C93.1226 147.687 92.5523 148.258 92.1983 148.887C90.4283 151.837 89.1893 154.217 88.4813 156.026C86.9079 160.038 86.1213 162.614 86.1213 163.755C86.1213 165.171 86.6523 165.899 87.7143 165.938C87.7929 165.938 87.8913 165.938 88.0093 165.938C90.8413 165.938 93.6339 162.516 96.3873 155.672C95.8366 154.492 95.5613 153.41 95.5613 152.427C95.5613 151.444 95.6793 150.559 95.9153 149.772C96.5839 147.491 97.6459 146.094 99.1013 145.583C99.3766 145.465 99.6323 145.406 99.8683 145.406C100.498 145.406 100.812 145.74 100.812 146.409ZM105.154 157.914C104.603 159.251 104.328 160.746 104.328 162.398C104.328 163.499 104.564 164.384 105.036 165.053C105.547 165.682 106.255 165.997 107.16 165.997C110.739 165.997 113.984 162.634 116.895 155.908C117.17 155.279 117.504 155.003 117.898 155.082C118.055 155.121 118.134 155.22 118.134 155.377C118.134 155.534 117.681 156.577 116.777 158.504C115.911 160.392 115.026 161.926 114.122 163.106C112.116 165.859 109.638 167.236 106.688 167.236C105.114 167.236 103.777 166.725 102.676 165.702C101.574 164.679 101.024 163.283 101.024 161.513C101.024 159.743 101.437 157.875 102.263 155.908C103.128 153.902 104.288 152.053 105.744 150.362C107.199 148.631 108.871 147.373 110.759 146.586C111.663 146.193 112.529 145.996 113.355 145.996C114.181 145.996 114.948 146.232 115.656 146.704C116.324 147.255 116.659 147.864 116.659 148.533C116.659 150.893 115.243 153.155 112.411 155.318C111.545 155.987 110.326 156.596 108.753 157.147C107.179 157.658 105.98 157.914 105.154 157.914ZM115.066 148.474C115.066 147.687 114.751 147.294 114.122 147.294C113.02 147.294 111.349 148.651 109.107 151.365C107.769 153.017 106.589 154.866 105.567 156.911C106.235 156.911 107.199 156.675 108.458 156.203C109.756 155.731 110.877 155.102 111.821 154.315C113.984 152.466 115.066 150.519 115.066 148.474ZM119.673 157.914C119.123 159.251 118.847 160.746 118.847 162.398C118.847 163.499 119.083 164.384 119.555 165.053C120.067 165.682 120.775 165.997 121.679 165.997C125.259 165.997 128.504 162.634 131.414 155.908C131.69 155.279 132.024 155.003 132.417 155.082C132.575 155.121 132.653 155.22 132.653 155.377C132.653 155.534 132.201 156.577 131.296 158.504C130.431 160.392 129.546 161.926 128.641 163.106C126.635 165.859 124.157 167.236 121.207 167.236C119.634 167.236 118.297 166.725 117.195 165.702C116.094 164.679 115.543 163.283 115.543 161.513C115.543 159.743 115.956 157.875 116.782 155.908C117.648 153.902 118.808 152.053 120.263 150.362C121.719 148.631 123.39 147.373 125.278 146.586C126.183 146.193 127.048 145.996 127.874 145.996C128.7 145.996 129.467 146.232 130.175 146.704C130.844 147.255 131.178 147.864 131.178 148.533C131.178 150.893 129.762 153.155 126.93 155.318C126.065 155.987 124.846 156.596 123.272 157.147C121.699 157.658 120.499 157.914 119.673 157.914ZM129.585 148.474C129.585 147.687 129.271 147.294 128.641 147.294C127.54 147.294 125.868 148.651 123.626 151.365C122.289 153.017 121.109 154.866 120.086 156.911C120.755 156.911 121.719 156.675 122.977 156.203C124.275 155.731 125.396 155.102 126.34 154.315C128.504 152.466 129.585 150.519 129.585 148.474ZM130.122 162.28C130.122 159.015 131.695 153.548 134.842 145.878H131.774C131.577 145.878 131.44 145.78 131.361 145.583C131.322 145.347 131.341 145.131 131.42 144.934C131.538 144.698 131.695 144.58 131.892 144.58H135.432C136.848 141.473 138.166 138.877 139.385 136.792C140.604 134.707 141.725 133.311 142.748 132.603C143.771 131.856 144.498 131.482 144.931 131.482C145.403 131.482 145.737 131.521 145.934 131.6C146.839 132.033 147.291 132.937 147.291 134.314C147.291 135.651 146.839 137.284 145.934 139.211C145.029 141.138 144.144 142.928 143.279 144.58H146.111C146.308 144.58 146.426 144.698 146.465 144.934C146.544 145.131 146.524 145.347 146.406 145.583C146.327 145.78 146.19 145.878 145.993 145.878H142.571C140.408 149.536 137.792 152.781 134.724 155.613L133.367 161.631C133.249 162.142 133.19 162.654 133.19 163.165C133.19 163.637 133.328 164.129 133.603 164.64C133.878 165.151 134.311 165.407 134.901 165.407C135.57 165.407 136.317 165.171 137.143 164.699C139.031 163.283 141.116 160.313 143.397 155.79C143.554 155.436 143.731 155.22 143.928 155.141C144.164 155.062 144.302 155.121 144.341 155.318C144.38 155.475 144.321 155.751 144.164 156.144C142.866 158.858 141.843 160.785 141.096 161.926C138.972 165.348 136.71 167.059 134.311 167.059C133.092 167.059 132.089 166.607 131.302 165.702C130.515 164.797 130.122 163.657 130.122 162.28ZM141.981 144.58C144.577 139.939 145.875 136.713 145.875 134.904C145.875 134.117 145.737 133.724 145.462 133.724C145.029 133.724 144.361 134.353 143.456 135.612C142.591 136.871 141.116 139.86 139.031 144.58H141.981ZM141.214 145.878H138.441C137.969 146.979 136.907 149.595 135.255 153.725C137.379 151.522 139.365 148.907 141.214 145.878Z" fill="url(#paint2_linear)"/>
</g>
<g filter="url(#filter3_d)">
<path d="M174.69 139.742C172.802 143.833 171.858 147.491 171.858 150.716C171.858 157.363 174.139 161.434 178.702 162.929C180.039 163.283 181.396 163.46 182.773 163.46C184.189 163.46 185.605 163.283 187.021 162.929C189.853 162.182 192.39 161.061 194.632 159.566C196.874 158.071 198.29 156.636 198.88 155.259C200.453 151.601 202.145 149.772 203.954 149.772C204.859 149.772 205.468 150.283 205.783 151.306C205.94 151.699 205.98 152.132 205.901 152.604C205.508 155.672 204.662 158.72 203.364 161.749C202.066 164.738 200.237 168.18 197.877 172.074C202.597 172.113 206.904 172.625 210.798 173.608C211.624 173.805 212.037 174.08 212.037 174.434C212.037 174.867 211.467 174.945 210.326 174.67C207.612 173.962 203.698 173.608 198.585 173.608C198.113 173.608 197.602 173.608 197.051 173.608C194.652 177.069 191.446 180.118 187.434 182.753C183.461 185.428 179.587 187.257 175.811 188.24C173.726 188.791 171.956 189.066 170.501 189.066C169.046 189.066 167.826 188.889 166.843 188.535C163.972 187.473 162.536 186.077 162.536 184.346C162.536 183.835 162.674 183.284 162.949 182.694C164.011 180.334 166.804 178.151 171.327 176.145C174.749 174.611 178.348 173.569 182.124 173.018C185.939 172.467 190.207 172.153 194.927 172.074C197.838 167.157 199.824 162.319 200.886 157.56L201.122 156.557C199.234 158.366 197.09 159.979 194.691 161.395C192.331 162.772 190.266 163.735 188.496 164.286C185.664 165.191 183.324 165.643 181.475 165.643C179.666 165.643 178.073 165.387 176.696 164.876C174.179 164.011 172.133 162.28 170.56 159.684C168.869 156.931 168.023 153.646 168.023 149.831C168.023 146.016 169.026 141.925 171.032 137.559C168.436 134.884 167.138 132.052 167.138 129.063C167.138 126.034 168.357 123.163 170.796 120.449C171.268 119.938 171.602 119.761 171.799 119.918C172.035 120.036 171.956 120.37 171.563 120.921C169.793 123.281 168.908 125.661 168.908 128.06C168.908 130.813 169.931 133.39 171.976 135.789C172.212 135.278 172.645 134.511 173.274 133.488C176.342 128.453 180.511 124.599 185.782 121.924C189.912 119.8 193.904 118.738 197.759 118.738C198.821 118.738 199.883 118.817 200.945 118.974C206.019 119.761 209.441 121.845 211.211 125.228C211.919 126.565 212.273 128.021 212.273 129.594C212.273 131.128 211.781 132.78 210.798 134.55C208.595 138.365 204.741 141.04 199.234 142.574C196.323 143.4 193.354 143.813 190.325 143.813C183.953 143.813 178.741 142.456 174.69 139.742ZM199.116 120.567C195.733 120.567 192.154 121.708 188.378 123.989C182.832 127.293 178.525 132.033 175.457 138.208C177.306 139.624 179.43 140.627 181.829 141.217C184.268 141.807 186.215 142.102 187.67 142.102C195.969 142.102 202.243 139.88 206.491 135.435C208.615 133.154 209.677 130.872 209.677 128.591C209.677 124.972 207.651 122.534 203.6 121.275C202.105 120.803 200.611 120.567 199.116 120.567ZM165.545 184.759C165.545 185.86 166.489 186.608 168.377 187.001C169.006 187.158 169.695 187.237 170.442 187.237C173.235 187.237 176.775 186.234 181.062 184.228C186.49 181.75 190.797 178.23 193.983 173.667C189.853 173.785 186.234 174.1 183.127 174.611C178.643 175.28 174.375 176.912 170.324 179.508C167.138 181.553 165.545 183.304 165.545 184.759ZM217.891 143.341C217.891 145.111 216.77 146.783 214.528 148.356C215.315 148.395 216.357 148.415 217.655 148.415C218.992 148.415 220.664 148.317 222.67 148.12C222.749 148.238 222.788 148.553 222.788 149.064C222.788 149.575 222.552 150.342 222.08 151.365C221.608 152.348 221.175 153.214 220.782 153.961C220.428 154.669 220.074 155.357 219.72 156.026C219.405 156.655 219.032 157.442 218.599 158.386C218.206 159.33 217.871 160.195 217.596 160.982C216.613 163.971 216.77 165.466 218.068 165.466C219.72 165.466 222.159 162.182 225.384 155.613C225.659 155.102 225.876 154.905 226.033 155.023C226.23 155.141 226.328 155.298 226.328 155.495C226.328 155.652 226.072 156.262 225.561 157.324C225.05 158.347 224.499 159.409 223.909 160.51C223.319 161.611 222.395 162.89 221.136 164.345C219.641 166.154 218.206 167.059 216.829 167.059C215.295 167.059 214.233 166.135 213.643 164.286C213.525 163.932 213.466 163.401 213.466 162.693C213.466 161.985 213.682 161.041 214.115 159.861C214.587 158.681 215.315 157.245 216.298 155.554C217.281 153.863 217.832 152.879 217.95 152.604C218.068 152.289 218.127 151.994 218.127 151.719C218.127 150.5 216.554 149.851 213.407 149.772L212.699 151.66C210.221 158.15 207.841 162.496 205.56 164.699C205.167 165.053 204.97 164.935 204.97 164.345C204.97 164.227 205.009 164.089 205.088 163.932C207.291 161.021 209.198 157.58 210.811 153.607C212.424 149.634 213.545 145.858 214.174 142.279C214.41 141.06 214.961 140.45 215.826 140.45C216.691 140.45 217.321 141.001 217.714 142.102C217.832 142.456 217.891 142.869 217.891 143.341ZM227.848 157.914C227.297 159.251 227.022 160.746 227.022 162.398C227.022 163.499 227.258 164.384 227.73 165.053C228.241 165.682 228.949 165.997 229.854 165.997C233.433 165.997 236.678 162.634 239.589 155.908C239.864 155.279 240.199 155.003 240.592 155.082C240.749 155.121 240.828 155.22 240.828 155.377C240.828 155.534 240.376 156.577 239.471 158.504C238.606 160.392 237.721 161.926 236.816 163.106C234.81 165.859 232.332 167.236 229.382 167.236C227.809 167.236 226.471 166.725 225.37 165.702C224.269 164.679 223.718 163.283 223.718 161.513C223.718 159.743 224.131 157.875 224.957 155.908C225.822 153.902 226.983 152.053 228.438 150.362C229.893 148.631 231.565 147.373 233.453 146.586C234.358 146.193 235.223 145.996 236.049 145.996C236.875 145.996 237.642 146.232 238.35 146.704C239.019 147.255 239.353 147.864 239.353 148.533C239.353 150.893 237.937 153.155 235.105 155.318C234.24 155.987 233.02 156.596 231.447 157.147C229.874 157.658 228.674 157.914 227.848 157.914ZM237.76 148.474C237.76 147.687 237.445 147.294 236.816 147.294C235.715 147.294 234.043 148.651 231.801 151.365C230.464 153.017 229.284 154.866 228.261 156.911C228.93 156.911 229.893 156.675 231.152 156.203C232.45 155.731 233.571 155.102 234.515 154.315C236.678 152.466 237.76 150.519 237.76 148.474ZM242.368 157.914C241.817 159.251 241.542 160.746 241.542 162.398C241.542 163.499 241.778 164.384 242.25 165.053C242.761 165.682 243.469 165.997 244.374 165.997C247.953 165.997 251.198 162.634 254.109 155.908C254.384 155.279 254.718 155.003 255.112 155.082C255.269 155.121 255.348 155.22 255.348 155.377C255.348 155.534 254.895 156.577 253.991 158.504C253.125 160.392 252.24 161.926 251.336 163.106C249.33 165.859 246.852 167.236 243.902 167.236C242.328 167.236 240.991 166.725 239.89 165.702C238.788 164.679 238.238 163.283 238.238 161.513C238.238 159.743 238.651 157.875 239.477 155.908C240.342 153.902 241.502 152.053 242.958 150.362C244.413 148.631 246.085 147.373 247.973 146.586C248.877 146.193 249.743 145.996 250.569 145.996C251.395 145.996 252.162 146.232 252.87 146.704C253.538 147.255 253.873 147.864 253.873 148.533C253.873 150.893 252.457 153.155 249.625 155.318C248.759 155.987 247.54 156.596 245.967 157.147C244.393 157.658 243.194 157.914 242.368 157.914ZM252.28 148.474C252.28 147.687 251.965 147.294 251.336 147.294C250.234 147.294 248.563 148.651 246.321 151.365C244.983 153.017 243.803 154.866 242.781 156.911C243.449 156.911 244.413 156.675 245.672 156.203C246.97 155.731 248.091 155.102 249.035 154.315C251.198 152.466 252.28 150.519 252.28 148.474ZM272.109 147.648C267.271 156.144 264.852 161.69 264.852 164.286C264.852 165.309 265.226 165.82 265.973 165.82C267.979 165.82 270.674 162.418 274.056 155.613C274.292 155.062 274.528 154.846 274.764 154.964C275 155.082 275.118 155.239 275.118 155.436C275.118 155.633 275.04 155.869 274.882 156.144C272.798 160.353 271.028 163.263 269.572 164.876C268.156 166.449 266.721 167.236 265.265 167.236C263.849 167.236 262.768 166.685 262.02 165.584C261.627 165.073 261.43 164.384 261.43 163.519C261.43 162.614 261.627 161.533 262.02 160.274C262.414 159.015 263.495 156.97 265.265 154.138C265.698 153.43 265.914 152.879 265.914 152.486C265.914 152.053 265.58 151.837 264.911 151.837C264.243 151.837 262.964 152.722 261.076 154.492C258.244 157.088 255.511 160.982 252.875 166.174C252.639 166.567 252.364 166.823 252.049 166.941C251.774 167.02 251.204 167.079 250.338 167.118C249.473 167.157 248.903 167.256 248.627 167.413C249.257 166.154 250.496 163.578 252.344 159.684C255.648 152.801 257.812 148.867 258.834 147.884C259.306 147.412 259.955 147.176 260.781 147.176C260.939 147.176 261.332 147.235 261.961 147.353C262.63 147.471 263.122 147.491 263.436 147.412C261.981 148.199 259.601 151.896 256.297 158.504C258.146 156.223 259.818 154.413 261.312 153.076C262.846 151.699 264.675 150.441 266.799 149.3C268.923 148.12 270.477 147.53 271.46 147.53C271.696 147.53 271.913 147.569 272.109 147.648Z" fill="url(#paint3_linear)"/>
</g>
<g filter="url(#filter4_d)">
<path d="M107.891 217V221.75H106.562V210.328H109.695C111.096 210.328 112.13 210.596 112.797 211.133C113.469 211.669 113.805 212.477 113.805 213.555C113.805 215.065 113.039 216.086 111.508 216.617L114.609 221.75H113.039L110.273 217H107.891ZM107.891 215.859H109.711C110.648 215.859 111.336 215.674 111.773 215.305C112.211 214.93 112.43 214.37 112.43 213.625C112.43 212.87 112.206 212.326 111.758 211.992C111.315 211.659 110.602 211.492 109.617 211.492H107.891V215.859ZM123.633 221.75L122.211 218.117H117.633L116.227 221.75H114.883L119.398 210.281H120.516L125.008 221.75H123.633ZM121.797 216.922L120.469 213.383C120.297 212.935 120.12 212.385 119.938 211.734C119.823 212.234 119.659 212.784 119.445 213.383L118.102 216.922H121.797ZM136.547 221.75H135.234L132.93 214.102C132.82 213.763 132.698 213.336 132.562 212.82C132.427 212.305 132.357 211.995 132.352 211.891C132.237 212.578 132.055 213.331 131.805 214.148L129.57 221.75H128.258L125.219 210.328H126.625L128.43 217.383C128.68 218.372 128.862 219.268 128.977 220.07C129.117 219.117 129.326 218.185 129.602 217.273L131.648 210.328H133.055L135.203 217.336C135.453 218.143 135.664 219.055 135.836 220.07C135.935 219.331 136.122 218.43 136.398 217.367L138.195 210.328H139.602L136.547 221.75ZM152.07 210.328H153.5L149.383 221.75H148.07L143.977 210.328H145.383L148.008 217.719C148.31 218.568 148.549 219.393 148.727 220.195C148.914 219.352 149.159 218.51 149.461 217.672L152.07 210.328ZM161.445 221.75H155.078V210.328H161.445V211.508H156.406V215.188H161.141V216.359H156.406V220.562H161.445V221.75ZM169.008 215.766H172.891V221.32C172.286 221.513 171.672 221.659 171.047 221.758C170.422 221.857 169.698 221.906 168.875 221.906C167.146 221.906 165.799 221.393 164.836 220.367C163.872 219.336 163.391 217.893 163.391 216.039C163.391 214.852 163.628 213.812 164.102 212.922C164.581 212.026 165.268 211.344 166.164 210.875C167.06 210.401 168.109 210.164 169.312 210.164C170.531 210.164 171.667 210.388 172.719 210.836L172.203 212.008C171.172 211.57 170.18 211.352 169.227 211.352C167.836 211.352 166.75 211.766 165.969 212.594C165.188 213.422 164.797 214.57 164.797 216.039C164.797 217.581 165.172 218.75 165.922 219.547C166.677 220.344 167.784 220.742 169.242 220.742C170.034 220.742 170.807 220.651 171.562 220.469V216.953H169.008V215.766ZM182.82 221.75L181.398 218.117H176.82L175.414 221.75H174.07L178.586 210.281H179.703L184.195 221.75H182.82ZM180.984 216.922L179.656 213.383C179.484 212.935 179.307 212.385 179.125 211.734C179.01 212.234 178.846 212.784 178.633 213.383L177.289 216.922H180.984ZM194.688 221.75H193.172L186.93 212.164H186.867C186.951 213.289 186.992 214.32 186.992 215.258V221.75H185.766V210.328H187.266L193.492 219.875H193.555C193.544 219.734 193.521 219.284 193.484 218.523C193.448 217.758 193.435 217.211 193.445 216.883V210.328H194.688V221.75Z" fill="url(#paint4_linear)"/>
</g>
<defs>
<filter id="filter0_d" x="119.625" y="31.25" width="64.125" height="86" filterUnits="userSpaceOnUse" color-interpolation-filters="sRGB">
<feFlood flood-opacity="0" result="BackgroundImageFix"/>
<feColorMatrix in="SourceAlpha" type="matrix" values="0 0 0 0 0 0 0 0 0 0 0 0 0 0 0 0 0 0 127 0"/>
<feOffset/>
<feGaussianBlur stdDeviation="1.5"/>
<feColorMatrix type="matrix" values="0 0 0 0 1 0 0 0 0 1 0 0 0 0 1 0 0 0 0.15 0"/>
<feBlend mode="normal" in2="BackgroundImageFix" result="effect1_dropShadow"/>
<feBlend mode="normal" in="SourceGraphic" in2="effect1_dropShadow" result="shape"/>
</filter>
<filter id="filter1_i" x="126.975" y="54.2366" width="61.2441" height="67.503" filterUnits="userSpaceOnUse" color-interpolation-filters="sRGB">
<feFlood flood-opacity="0" result="BackgroundImageFix"/>
<feBlend mode="normal" in="SourceGraphic" in2="BackgroundImageFix" result="shape"/>
<feColorMatrix in="SourceAlpha" type="matrix" values="0 0 0 0 0 0 0 0 0 0 0 0 0 0 0 0 0 0 127 0" result="hardAlpha"/>
<feOffset dx="12" dy="12"/>
<feGaussianBlur stdDeviation="12"/>
<feComposite in2="hardAlpha" operator="arithmetic" k2="-1" k3="1"/>
<feColorMatrix type="matrix" values="0 0 0 0 0 0 0 0 0 0 0 0 0 0 0 0 0 0 0.3 0"/>
<feBlend mode="normal" in2="shape" result="effect1_innerShadow"/>
</filter>
<filter id="filter2_d" x="14.8956" y="115.974" width="135.395" height="59.395" filterUnits="userSpaceOnUse" color-interpolation-filters="sRGB">
<feFlood flood-opacity="0" result="BackgroundImageFix"/>
<feColorMatrix in="SourceAlpha" type="matrix" values="0 0 0 0 0 0 0 0 0 0 0 0 0 0 0 0 0 0 127 0"/>
<feOffset/>
<feGaussianBlur stdDeviation="1.5"/>
<feColorMatrix type="matrix" values="0 0 0 0 1 0 0 0 0 1 0 0 0 0 1 0 0 0 0.15 0"/>
<feBlend mode="normal" in2="BackgroundImageFix" result="effect1_dropShadow"/>
<feBlend mode="normal" in="SourceGraphic" in2="effect1_dropShadow" result="shape"/>
</filter>
<filter id="filter3_d" x="159.536" y="115.738" width="118.582" height="76.328" filterUnits="userSpaceOnUse" color-interpolation-filters="sRGB">
<feFlood flood-opacity="0" result="BackgroundImageFix"/>
<feColorMatrix in="SourceAlpha" type="matrix" values="0 0 0 0 0 0 0 0 0 0 0 0 0 0 0 0 0 0 127 0"/>
<feOffset/>
<feGaussianBlur stdDeviation="1.5"/>
<feColorMatrix type="matrix" values="0 0 0 0 1 0 0 0 0 1 0 0 0 0 1 0 0 0 0.15 0"/>
<feBlend mode="normal" in2="BackgroundImageFix" result="effect1_dropShadow"/>
<feBlend mode="normal" in="SourceGraphic" in2="effect1_dropShadow" result="shape"/>
</filter>
<filter id="filter4_d" x="103.562" y="207.164" width="94.125" height="17.7422" filterUnits="userSpaceOnUse" color-interpolation-filters="sRGB">
<feFlood flood-opacity="0" result="BackgroundImageFix"/>
<feColorMatrix in="SourceAlpha" type="matrix" values="0 0 0 0 0 0 0 0 0 0 0 0 0 0 0 0 0 0 127 0"/>
<feOffset/>
<feGaussianBlur stdDeviation="1.5"/>
<feColorMatrix type="matrix" values="0 0 0 0 1 0 0 0 0 1 0 0 0 0 1 0 0 0 0.15 0"/>
<feBlend mode="normal" in2="BackgroundImageFix" result="effect1_dropShadow"/>
<feBlend mode="normal" in="SourceGraphic" in2="effect1_dropShadow" result="shape"/>
</filter>
<linearGradient id="paint0_linear" x1="137.706" y1="53.25" x2="187.025" y2="62.4388" gradientUnits="userSpaceOnUse">
<stop stop-color="#C5E078"/>
<stop offset="1" stop-color="#9EC873"/>
</linearGradient>
<linearGradient id="paint1_linear" x1="137.164" y1="38.7459" x2="141.472" y2="40.5563" gradientUnits="userSpaceOnUse">
<stop stop-color="#678D5B"/>
<stop offset="1" stop-color="#8CC07C"/>
</linearGradient>
<linearGradient id="paint2_linear" x1="47.7297" y1="114.913" x2="156.28" y2="139.529" gradientUnits="userSpaceOnUse">
<stop stop-color="#C5E078"/>
<stop offset="1" stop-color="#9EC873"/>
</linearGradient>
<linearGradient id="paint3_linear" x1="191.059" y1="114.913" x2="285.774" y2="133.418" gradientUnits="userSpaceOnUse">
<stop stop-color="#C5E078"/>
<stop offset="1" stop-color="#9EC873"/>
</linearGradient>
<linearGradient id="paint4_linear" x1="126.571" y1="203.031" x2="194.552" y2="239.732" gradientUnits="userSpaceOnUse">
<stop stop-color="#C5E078"/>
<stop offset="1" stop-color="#9EC873"/>
</linearGradient>
</defs>
</svg>
