<svg width="48" height="48" viewBox="0 0 48 48" fill="none" xmlns="http://www.w3.org/2000/svg">
<path d="M29.207 14.1884C28.1761 12.6126 25.6223 11.879 25.6223 11.879C25.6223 11.879 25.5407 10.0071 26.3558 8.89043C27.1709 7.77379 27.4317 7.53117 28.2576 6.79841C28.6245 6.4729 29.2357 6.01051 29.2357 6.01051L28.3392 4.16301C28.3392 4.16301 26.6547 4.89658 25.6223 6.20069C25.0295 6.94939 24.1551 8.15686 24.1551 8.15686C24.1551 8.15686 23.2468 7.05724 22.5521 6.47238C20.278 4.5577 17.8519 4 15.3524 4C12.8528 4 11.44 5.22261 11.44 5.22261C11.44 5.22261 12.88 8.15686 15.5969 9.51532C18.3138 10.8738 19.5636 10.7379 22.4163 10.4119C22.8296 10.3647 23.4759 10.3032 23.4759 10.3032L23.2042 11.879C23.2042 11.879 20.8217 12.2866 19.6722 14.1884C18.1779 16.6608 18.8843 17.2857 17.5802 20.2743C16.2761 23.2629 13.6754 24.7277 12.2551 26.5775C11.0868 28.0989 10.006 30.7709 10 33.4241C9.99408 36.0772 10.612 38.7059 12.4164 40.651C14.2208 42.5962 15.7977 43.431 18.4207 43.8298C19.6166 44.0116 20.4041 43.9657 21.518 43.8298C22.6319 43.694 23.4471 43.1234 24.4796 43.1234C25.512 43.1234 26.2448 43.6795 27.4138 43.8298C28.7924 44.0071 29.37 44.1015 30.973 43.8298C32.5759 43.5581 34.7223 42.7431 36.5698 40.651C37.8196 39.1296 38.7432 36.9832 38.9062 34.4837C38.9062 31.2234 38.0912 29.3216 38.0912 29.3216C37.3848 27.4741 36.8032 26.5575 35.4287 25.0288C34.6869 24.2039 33.2678 23.1644 32.6303 22.4206C31.9782 21.6599 31.4134 21.361 30.3752 18.0736C29.8862 16.5249 30.0743 15.5143 29.207 14.1884Z" fill="url(#paint0_linear)"/>
<g filter="url(#filter0_i)">
<path d="M29.9419 41.6563C27.7412 41.7921 26.6273 41.6563 24.807 40.651C24.807 40.651 24.5752 40.5467 24.3998 40.5424C24.2146 40.5378 24.1279 40.5868 23.9651 40.651C21.9003 41.4661 21.2754 41.9552 18.7487 41.6563L18.7237 41.6533C17.8793 41.5538 15.0365 41.2185 13.3421 38.233C12.4727 36.63 12.0922 34.4293 12.1738 33.4512C12.3914 30.843 12.918 29.1732 14.5647 27.0937C15.3195 26.1406 15.8157 25.7791 16.7382 24.9202C17.5261 24.1866 18.128 23.453 18.7487 22.6651C20.3542 20.6275 20.6442 17.9377 20.8679 16.7695C21.0916 15.6012 22.3889 13.8895 24.5353 13.9982C26.6816 14.1069 27.6326 15.7371 27.9586 16.7695C28.2846 17.8019 27.8771 19.6222 30.0778 22.6651C30.9261 23.8382 31.5732 24.432 32.0883 24.893C32.9094 25.6279 33.4522 25.9417 34.3705 27.0937C35.8648 28.9684 36.6527 31.7668 36.6527 33.4512C36.6527 35.1357 36.4897 36.5213 35.4301 38.233C34.3705 39.9446 32.088 41.5238 29.9419 41.6563Z" fill="#8DC17D"/>
</g>
<g filter="url(#filter1_i)">
<path d="M18.3683 6.60819C16.8415 6.09196 15.1623 6.28216 15.1623 6.28216C15.1623 6.28216 15.8687 7.39609 17.8249 7.96664C20.0256 8.60851 21.221 8.40135 21.221 8.40135C21.221 8.40135 20.3788 7.28796 18.3683 6.60819Z" fill="#8DC17D"/>
</g>
<defs>
<filter id="filter0_i" x="12.163" y="13.9933" width="26.4897" height="29.7515" filterUnits="userSpaceOnUse" color-interpolation-filters="sRGB">
<feFlood flood-opacity="0" result="BackgroundImageFix"/>
<feBlend mode="normal" in="SourceGraphic" in2="BackgroundImageFix" result="shape"/>
<feColorMatrix in="SourceAlpha" type="matrix" values="0 0 0 0 0 0 0 0 0 0 0 0 0 0 0 0 0 0 127 0" result="hardAlpha"/>
<feOffset dx="3" dy="3"/>
<feGaussianBlur stdDeviation="1"/>
<feComposite in2="hardAlpha" operator="arithmetic" k2="-1" k3="1"/>
<feColorMatrix type="matrix" values="0 0 0 0 0 0 0 0 0 0 0 0 0 0 0 0 0 0 0.15 0"/>
<feBlend mode="normal" in2="shape" result="effect1_innerShadow"/>
</filter>
<filter id="filter1_i" x="15.1623" y="6.24792" width="8.0587" height="4.1853" filterUnits="userSpaceOnUse" color-interpolation-filters="sRGB">
<feFlood flood-opacity="0" result="BackgroundImageFix"/>
<feBlend mode="normal" in="SourceGraphic" in2="BackgroundImageFix" result="shape"/>
<feColorMatrix in="SourceAlpha" type="matrix" values="0 0 0 0 0 0 0 0 0 0 0 0 0 0 0 0 0 0 127 0" result="hardAlpha"/>
<feOffset dx="3" dy="3"/>
<feGaussianBlur stdDeviation="1"/>
<feComposite in2="hardAlpha" operator="arithmetic" k2="-1" k3="1"/>
<feColorMatrix type="matrix" values="0 0 0 0 0 0 0 0 0 0 0 0 0 0 0 0 0 0 0.15 0"/>
<feBlend mode="normal" in2="shape" result="effect1_innerShadow"/>
</filter>
<linearGradient id="paint0_linear" x1="17.5" y1="13.5" x2="42.0355" y2="18.0468" gradientUnits="userSpaceOnUse">
<stop stop-color="#C5E078"/>
<stop offset="1" stop-color="#9EC873"/>
</linearGradient>
</defs>
</svg>
