<svg width="29" height="40" viewBox="0 0 29 40" fill="none" xmlns="http://www.w3.org/2000/svg">
<path d="M19.207 10.1884C18.1761 8.61259 15.6223 7.87902 15.6223 7.87902C15.6223 7.87902 15.5407 6.00706 16.3558 4.89043C17.1709 3.77379 17.4317 3.53117 18.2576 2.79841C18.6245 2.4729 19.2357 2.01051 19.2357 2.01051L18.3392 0.163014C18.3392 0.163014 16.6547 0.896578 15.6223 2.20069C15.0295 2.94939 14.1551 4.15686 14.1551 4.15686C14.1551 4.15686 13.2468 3.05724 12.5521 2.47238C10.278 0.557702 7.85191 0 5.35235 0C2.8528 0 1.44001 1.22261 1.44001 1.22261C1.44001 1.22261 2.87997 4.15686 5.59688 5.51532C8.31378 6.87377 9.56356 6.73792 12.4163 6.41189C12.8296 6.36466 13.4759 6.30322 13.4759 6.30322L13.2042 7.87902C13.2042 7.87902 10.8217 8.28656 9.67223 10.1884C8.17793 12.6608 8.88433 13.2857 7.58022 16.2743C6.2761 19.2629 3.67543 20.7277 2.25508 22.5775C1.08681 24.0989 0.00600441 26.7709 4.2665e-05 29.4241C-0.00591908 32.0772 0.612018 34.7059 2.41642 36.651C4.22083 38.5962 5.79771 39.431 8.42075 39.8298C9.61656 40.0116 10.4041 39.9657 11.518 39.8298C12.6319 39.694 13.4471 39.1234 14.4796 39.1234C15.512 39.1234 16.2448 39.6795 17.4138 39.8298C18.7924 40.0071 19.37 40.1015 20.973 39.8298C22.5759 39.5581 24.7223 38.7431 26.5698 36.651C27.8196 35.1296 28.7432 32.9832 28.9062 30.4837C28.9062 27.2234 28.0912 25.3216 28.0912 25.3216C27.3848 23.4741 26.8032 22.5575 25.4287 21.0288C24.6869 20.2039 23.2678 19.1644 22.6303 18.4206C21.9782 17.6599 21.4134 17.361 20.3752 14.0736C19.8862 12.5249 20.0743 11.5143 19.207 10.1884Z" fill="url(#paint0_linear)"/>
<g filter="url(#filter0_i)">
<path d="M19.9419 37.6563C17.7412 37.7921 16.6273 37.6563 14.807 36.651C14.807 36.651 14.5752 36.5467 14.3998 36.5424C14.2146 36.5378 14.1279 36.5868 13.9651 36.651C11.9003 37.4661 11.2754 37.9552 8.74872 37.6563L8.72368 37.6533C7.87927 37.5538 5.0365 37.2185 3.34208 34.233C2.4727 32.63 2.09221 30.4293 2.17382 29.4512C2.39144 26.843 2.91797 25.1732 4.56469 23.0937C5.31946 22.1406 5.81565 21.7791 6.73822 20.9202C7.52612 20.1866 8.12796 19.453 8.74872 18.6651C10.3542 16.6275 10.6442 13.9377 10.8679 12.7695C11.0916 11.6012 12.3889 9.88954 14.5353 9.99822C16.6816 10.1069 17.6326 11.7371 17.9586 12.7695C18.2846 13.8019 17.8771 15.6222 20.0778 18.6651C20.9261 19.8382 21.5732 20.432 22.0883 20.893C22.9094 21.6279 23.4522 21.9417 24.3705 23.0937C25.8648 24.9684 26.6527 27.7668 26.6527 29.4512C26.6527 31.1357 26.4897 32.5213 25.4301 34.233C24.3705 35.9446 22.088 37.5238 19.9419 37.6563Z" fill="#8DC17D"/>
</g>
<g filter="url(#filter1_i)">
<path d="M8.36829 2.60819C6.84148 2.09196 5.16234 2.28216 5.16234 2.28216C5.16234 2.28216 5.86873 3.39609 7.8249 3.96664C10.0256 4.60851 11.221 4.40135 11.221 4.40135C11.221 4.40135 10.3788 3.28796 8.36829 2.60819Z" fill="#8DC17D"/>
</g>
<defs>
<filter id="filter0_i" x="2.16302" y="9.99329" width="26.4897" height="29.7515" filterUnits="userSpaceOnUse" color-interpolation-filters="sRGB">
<feFlood flood-opacity="0" result="BackgroundImageFix"/>
<feBlend mode="normal" in="SourceGraphic" in2="BackgroundImageFix" result="shape"/>
<feColorMatrix in="SourceAlpha" type="matrix" values="0 0 0 0 0 0 0 0 0 0 0 0 0 0 0 0 0 0 127 0" result="hardAlpha"/>
<feOffset dx="3" dy="3"/>
<feGaussianBlur stdDeviation="1"/>
<feComposite in2="hardAlpha" operator="arithmetic" k2="-1" k3="1"/>
<feColorMatrix type="matrix" values="0 0 0 0 0 0 0 0 0 0 0 0 0 0 0 0 0 0 0.15 0"/>
<feBlend mode="normal" in2="shape" result="effect1_innerShadow"/>
</filter>
<filter id="filter1_i" x="5.16234" y="2.24792" width="8.0587" height="4.1853" filterUnits="userSpaceOnUse" color-interpolation-filters="sRGB">
<feFlood flood-opacity="0" result="BackgroundImageFix"/>
<feBlend mode="normal" in="SourceGraphic" in2="BackgroundImageFix" result="shape"/>
<feColorMatrix in="SourceAlpha" type="matrix" values="0 0 0 0 0 0 0 0 0 0 0 0 0 0 0 0 0 0 127 0" result="hardAlpha"/>
<feOffset dx="3" dy="3"/>
<feGaussianBlur stdDeviation="1"/>
<feComposite in2="hardAlpha" operator="arithmetic" k2="-1" k3="1"/>
<feColorMatrix type="matrix" values="0 0 0 0 0 0 0 0 0 0 0 0 0 0 0 0 0 0 0.15 0"/>
<feBlend mode="normal" in2="shape" result="effect1_innerShadow"/>
</filter>
<linearGradient id="paint0_linear" x1="7.5" y1="9.5" x2="32.0355" y2="14.0468" gradientUnits="userSpaceOnUse">
<stop stop-color="#C5E078"/>
<stop offset="1" stop-color="#9EC873"/>
</linearGradient>
</defs>
</svg>
